<mxfile host="app.diagrams.net" modified="2024-07-05T15:42:07.329Z" agent="Mozilla/5.0 (X11; Linux x86_64) AppleWebKit/537.36 (KHTML, like Gecko) Chrome/126.0.0.0 Safari/537.36" etag="3JHNllzfKnSIw8XJLCzc" version="24.6.4" type="github">
  <diagram name="Page-1" id="yu1hhraFgdrDqdv_gLaq">
    <mxGraphModel dx="2005" dy="889" grid="0" gridSize="10" guides="0" tooltips="1" connect="1" arrows="1" fold="1" page="0" pageScale="1" pageWidth="850" pageHeight="1100" math="0" shadow="0">
      <root>
        <mxCell id="0" />
        <mxCell id="1" parent="0" />
        <mxCell id="a_h_QdSzYZ5ICD9QuQ7M-1" value="&lt;font style=&quot;font-size: 36px;&quot;&gt;Display Encoder&lt;/font&gt;" style="text;html=1;align=center;verticalAlign=middle;resizable=0;points=[];autosize=1;strokeColor=none;fillColor=none;" parent="1" vertex="1">
          <mxGeometry x="454" y="10" width="290" height="60" as="geometry" />
        </mxCell>
        <mxCell id="a_h_QdSzYZ5ICD9QuQ7M-2" style="edgeStyle=none;rounded=0;orthogonalLoop=1;jettySize=auto;html=1;entryX=0;entryY=0.75;entryDx=0;entryDy=0;exitX=0.5;exitY=1;exitDx=0;exitDy=0;" parent="1" source="j9uklfwy02_yAITF8O0o-32" target="a_h_QdSzYZ5ICD9QuQ7M-55" edge="1">
          <mxGeometry relative="1" as="geometry">
            <mxPoint x="1524" y="890" as="targetPoint" />
            <Array as="points">
              <mxPoint x="435" y="950" />
              <mxPoint x="471" y="950" />
              <mxPoint x="514" y="950" />
            </Array>
            <mxPoint x="509" y="496" as="sourcePoint" />
          </mxGeometry>
        </mxCell>
        <mxCell id="a_h_QdSzYZ5ICD9QuQ7M-3" value="pixel_data" style="edgeLabel;html=1;align=center;verticalAlign=middle;resizable=0;points=[];" parent="a_h_QdSzYZ5ICD9QuQ7M-2" vertex="1" connectable="0">
          <mxGeometry x="0.0602" relative="1" as="geometry">
            <mxPoint x="-178" y="-462" as="offset" />
          </mxGeometry>
        </mxCell>
        <mxCell id="a_h_QdSzYZ5ICD9QuQ7M-4" value="Memory&lt;div&gt;&lt;br&gt;&lt;/div&gt;&lt;div&gt;&lt;br&gt;&lt;/div&gt;&lt;div&gt;&lt;br&gt;&lt;/div&gt;&lt;div&gt;&lt;br&gt;&lt;/div&gt;&lt;div&gt;&lt;br&gt;&lt;/div&gt;&lt;div&gt;&lt;br&gt;&lt;/div&gt;&lt;div&gt;&lt;br&gt;&lt;/div&gt;&lt;div&gt;&lt;br&gt;&lt;/div&gt;&lt;div&gt;&lt;br&gt;&lt;/div&gt;&lt;div&gt;&lt;br&gt;&lt;/div&gt;" style="whiteSpace=wrap;html=1;" parent="1" vertex="1">
          <mxGeometry x="-1" y="308" width="120" height="180" as="geometry" />
        </mxCell>
        <mxCell id="a_h_QdSzYZ5ICD9QuQ7M-5" value="0xA0000000&lt;div&gt;&lt;br&gt;&lt;div&gt;0xA0000001&lt;/div&gt;&lt;div&gt;&lt;span style=&quot;background-color: initial;&quot;&gt;...&lt;/span&gt;&lt;br&gt;&lt;/div&gt;&lt;div&gt;&lt;span style=&quot;background-color: initial;&quot;&gt;&lt;br&gt;&lt;/span&gt;&lt;/div&gt;&lt;div&gt;&lt;span style=&quot;background-color: initial;&quot;&gt;0xA004AFFE&lt;/span&gt;&lt;br&gt;&lt;/div&gt;&lt;div&gt;&lt;br&gt;&lt;/div&gt;&lt;div&gt;&lt;div&gt;0xA004AFFF&lt;/div&gt;&lt;/div&gt;&lt;/div&gt;" style="whiteSpace=wrap;html=1;" parent="1" vertex="1">
          <mxGeometry x="19" y="348" width="80" height="120" as="geometry" />
        </mxCell>
        <mxCell id="a_h_QdSzYZ5ICD9QuQ7M-6" style="edgeStyle=none;rounded=0;orthogonalLoop=1;jettySize=auto;html=1;exitX=0;exitY=0.5;exitDx=0;exitDy=0;entryX=1;entryY=0.5;entryDx=0;entryDy=0;endArrow=none;endFill=0;" parent="1" edge="1">
          <mxGeometry relative="1" as="geometry">
            <mxPoint x="19" y="397.71000000000004" as="sourcePoint" />
            <mxPoint x="99" y="397.71000000000004" as="targetPoint" />
          </mxGeometry>
        </mxCell>
        <mxCell id="a_h_QdSzYZ5ICD9QuQ7M-7" style="edgeStyle=none;rounded=0;orthogonalLoop=1;jettySize=auto;html=1;exitX=0.004;exitY=0.205;exitDx=0;exitDy=0;entryX=1.001;entryY=0.205;entryDx=0;entryDy=0;endArrow=none;endFill=0;exitPerimeter=0;entryPerimeter=0;" parent="1" source="a_h_QdSzYZ5ICD9QuQ7M-5" target="a_h_QdSzYZ5ICD9QuQ7M-5" edge="1">
          <mxGeometry relative="1" as="geometry">
            <mxPoint x="19" y="378" as="sourcePoint" />
            <mxPoint x="99" y="378" as="targetPoint" />
          </mxGeometry>
        </mxCell>
        <mxCell id="a_h_QdSzYZ5ICD9QuQ7M-8" style="edgeStyle=none;rounded=0;orthogonalLoop=1;jettySize=auto;html=1;exitX=0.004;exitY=0.801;exitDx=0;exitDy=0;entryX=0.994;entryY=0.801;entryDx=0;entryDy=0;endArrow=none;endFill=0;exitPerimeter=0;entryPerimeter=0;" parent="1" source="a_h_QdSzYZ5ICD9QuQ7M-5" target="a_h_QdSzYZ5ICD9QuQ7M-5" edge="1">
          <mxGeometry relative="1" as="geometry">
            <mxPoint x="19" y="438" as="sourcePoint" />
            <mxPoint x="99" y="438" as="targetPoint" />
          </mxGeometry>
        </mxCell>
        <mxCell id="a_h_QdSzYZ5ICD9QuQ7M-9" style="edgeStyle=none;rounded=0;orthogonalLoop=1;jettySize=auto;html=1;exitX=-0.003;exitY=0.559;exitDx=0;exitDy=0;entryX=0.989;entryY=0.558;entryDx=0;entryDy=0;endArrow=none;endFill=0;exitPerimeter=0;entryPerimeter=0;" parent="1" source="a_h_QdSzYZ5ICD9QuQ7M-5" target="a_h_QdSzYZ5ICD9QuQ7M-5" edge="1">
          <mxGeometry relative="1" as="geometry">
            <mxPoint x="19" y="418" as="sourcePoint" />
            <mxPoint x="99" y="418" as="targetPoint" />
          </mxGeometry>
        </mxCell>
        <mxCell id="a_h_QdSzYZ5ICD9QuQ7M-36" style="edgeStyle=orthogonalEdgeStyle;rounded=0;orthogonalLoop=1;jettySize=auto;html=1;exitX=1;exitY=0.5;exitDx=0;exitDy=0;entryX=0;entryY=0.5;entryDx=0;entryDy=0;" parent="1" edge="1">
          <mxGeometry relative="1" as="geometry">
            <mxPoint x="843.9999999999998" y="539.5699999999999" as="targetPoint" />
            <mxPoint x="710" y="539.5699999999999" as="sourcePoint" />
          </mxGeometry>
        </mxCell>
        <mxCell id="a_h_QdSzYZ5ICD9QuQ7M-11" value="&lt;font size=&quot;3&quot;&gt;HSYNC&lt;/font&gt;&lt;div&gt;&lt;font size=&quot;3&quot;&gt;FSM&lt;/font&gt;&lt;/div&gt;" style="whiteSpace=wrap;html=1;align=center;" parent="1" vertex="1">
          <mxGeometry x="560" y="466" width="150" height="187" as="geometry" />
        </mxCell>
        <mxCell id="a_h_QdSzYZ5ICD9QuQ7M-12" value="" style="triangle;whiteSpace=wrap;html=1;" parent="1" vertex="1">
          <mxGeometry x="560" y="620" width="24" height="33" as="geometry" />
        </mxCell>
        <mxCell id="a_h_QdSzYZ5ICD9QuQ7M-13" value="" style="ellipse;whiteSpace=wrap;html=1;" parent="1" vertex="1">
          <mxGeometry x="565" y="653" width="20" height="20" as="geometry" />
        </mxCell>
        <mxCell id="a_h_QdSzYZ5ICD9QuQ7M-18" style="edgeStyle=none;rounded=0;orthogonalLoop=1;jettySize=auto;html=1;exitX=1;exitY=0.5;exitDx=0;exitDy=0;strokeWidth=2;" parent="1" edge="1">
          <mxGeometry relative="1" as="geometry">
            <mxPoint x="1039" y="769.1644827586207" as="targetPoint" />
            <mxPoint x="959" y="769.13" as="sourcePoint" />
          </mxGeometry>
        </mxCell>
        <mxCell id="a_h_QdSzYZ5ICD9QuQ7M-26" value="" style="endArrow=classic;html=1;rounded=0;exitX=0;exitY=0.5;exitDx=0;exitDy=0;entryX=0.5;entryY=0;entryDx=0;entryDy=0;" parent="1" source="a_h_QdSzYZ5ICD9QuQ7M-107" target="j9uklfwy02_yAITF8O0o-1" edge="1">
          <mxGeometry width="50" height="50" relative="1" as="geometry">
            <mxPoint x="610" y="463" as="sourcePoint" />
            <mxPoint x="410" y="413" as="targetPoint" />
            <Array as="points">
              <mxPoint x="610" y="240" />
              <mxPoint x="410" y="240" />
              <mxPoint x="379" y="240" />
              <mxPoint x="267" y="240" />
            </Array>
          </mxGeometry>
        </mxCell>
        <mxCell id="a_h_QdSzYZ5ICD9QuQ7M-27" value="VGA_request_address" style="text;html=1;align=center;verticalAlign=middle;resizable=0;points=[];autosize=1;strokeColor=none;fillColor=none;" parent="1" vertex="1">
          <mxGeometry x="630.5" y="202" width="139" height="26" as="geometry" />
        </mxCell>
        <mxCell id="a_h_QdSzYZ5ICD9QuQ7M-28" value="" style="endArrow=none;html=1;rounded=0;" parent="1" edge="1">
          <mxGeometry width="50" height="50" relative="1" as="geometry">
            <mxPoint x="688.5" y="252" as="sourcePoint" />
            <mxPoint x="708.5" y="230" as="targetPoint" />
          </mxGeometry>
        </mxCell>
        <mxCell id="a_h_QdSzYZ5ICD9QuQ7M-29" value="32" style="text;html=1;align=center;verticalAlign=middle;resizable=0;points=[];autosize=1;strokeColor=none;fillColor=none;" parent="1" vertex="1">
          <mxGeometry x="693" y="241" width="31" height="26" as="geometry" />
        </mxCell>
        <mxCell id="a_h_QdSzYZ5ICD9QuQ7M-34" value="&lt;font style=&quot;font-size: 48px;&quot;&gt;MAY NEED&lt;/font&gt;&lt;div&gt;&lt;font style=&quot;font-size: 48px;&quot;&gt;TO ALTER&lt;/font&gt;&lt;/div&gt;&lt;div&gt;&lt;font style=&quot;font-size: 48px;&quot;&gt;MEMORY,&amp;nbsp;&lt;/font&gt;&lt;/div&gt;&lt;div&gt;&lt;font style=&quot;font-size: 48px;&quot;&gt;add reset too&lt;/font&gt;&lt;/div&gt;" style="text;html=1;align=center;verticalAlign=middle;resizable=0;points=[];autosize=1;strokeColor=none;fillColor=none;" parent="1" vertex="1">
          <mxGeometry x="-177" y="540" width="298" height="242" as="geometry" />
        </mxCell>
        <mxCell id="a_h_QdSzYZ5ICD9QuQ7M-51" style="edgeStyle=orthogonalEdgeStyle;rounded=0;orthogonalLoop=1;jettySize=auto;html=1;exitX=0.25;exitY=0;exitDx=0;exitDy=0;entryX=0.75;entryY=0;entryDx=0;entryDy=0;" parent="1" source="a_h_QdSzYZ5ICD9QuQ7M-38" target="a_h_QdSzYZ5ICD9QuQ7M-11" edge="1">
          <mxGeometry relative="1" as="geometry">
            <Array as="points">
              <mxPoint x="882" y="410" />
              <mxPoint x="673" y="410" />
            </Array>
          </mxGeometry>
        </mxCell>
        <mxCell id="a_h_QdSzYZ5ICD9QuQ7M-109" style="edgeStyle=orthogonalEdgeStyle;rounded=0;orthogonalLoop=1;jettySize=auto;html=1;exitX=1;exitY=0.5;exitDx=0;exitDy=0;" parent="1" source="a_h_QdSzYZ5ICD9QuQ7M-38" edge="1">
          <mxGeometry relative="1" as="geometry">
            <mxPoint x="1090.0000000000002" y="564.1228070175438" as="targetPoint" />
          </mxGeometry>
        </mxCell>
        <mxCell id="a_h_QdSzYZ5ICD9QuQ7M-113" style="edgeStyle=orthogonalEdgeStyle;rounded=0;orthogonalLoop=1;jettySize=auto;html=1;exitX=0.75;exitY=0;exitDx=0;exitDy=0;entryX=0.56;entryY=1;entryDx=0;entryDy=0;entryPerimeter=0;" parent="1" source="a_h_QdSzYZ5ICD9QuQ7M-38" target="a_h_QdSzYZ5ICD9QuQ7M-107" edge="1">
          <mxGeometry relative="1" as="geometry">
            <mxPoint x="956.6363636363637" y="339.9999999999999" as="targetPoint" />
          </mxGeometry>
        </mxCell>
        <mxCell id="a_h_QdSzYZ5ICD9QuQ7M-38" value="HSYNC&lt;div&gt;&lt;span style=&quot;background-color: initial;&quot;&gt;Counter&lt;/span&gt;&lt;br&gt;&lt;/div&gt;" style="whiteSpace=wrap;html=1;" parent="1" vertex="1">
          <mxGeometry x="844" y="467" width="150" height="194" as="geometry" />
        </mxCell>
        <mxCell id="a_h_QdSzYZ5ICD9QuQ7M-40" value="change_state_h" style="text;html=1;align=center;verticalAlign=middle;resizable=0;points=[];autosize=1;strokeColor=none;fillColor=none;shadow=1;" parent="1" vertex="1">
          <mxGeometry x="820" y="381" width="110" height="30" as="geometry" />
        </mxCell>
        <mxCell id="a_h_QdSzYZ5ICD9QuQ7M-41" style="edgeStyle=orthogonalEdgeStyle;rounded=0;orthogonalLoop=1;jettySize=auto;html=1;exitX=1;exitY=0.5;exitDx=0;exitDy=0;entryX=0;entryY=0.5;entryDx=0;entryDy=0;" parent="1" edge="1">
          <mxGeometry relative="1" as="geometry">
            <mxPoint x="844" y="619.5699999999999" as="targetPoint" />
            <mxPoint x="710" y="619.5699999999999" as="sourcePoint" />
          </mxGeometry>
        </mxCell>
        <mxCell id="a_h_QdSzYZ5ICD9QuQ7M-42" style="edgeStyle=orthogonalEdgeStyle;rounded=0;orthogonalLoop=1;jettySize=auto;html=1;exitX=1;exitY=0.5;exitDx=0;exitDy=0;entryX=0;entryY=0.5;entryDx=0;entryDy=0;" parent="1" edge="1">
          <mxGeometry relative="1" as="geometry">
            <mxPoint x="844" y="580" as="targetPoint" />
            <mxPoint x="710" y="580" as="sourcePoint" />
          </mxGeometry>
        </mxCell>
        <mxCell id="a_h_QdSzYZ5ICD9QuQ7M-43" style="edgeStyle=orthogonalEdgeStyle;rounded=0;orthogonalLoop=1;jettySize=auto;html=1;exitX=1;exitY=0.5;exitDx=0;exitDy=0;entryX=0;entryY=0.5;entryDx=0;entryDy=0;" parent="1" edge="1">
          <mxGeometry relative="1" as="geometry">
            <mxPoint x="844" y="491" as="targetPoint" />
            <mxPoint x="710" y="491" as="sourcePoint" />
          </mxGeometry>
        </mxCell>
        <mxCell id="a_h_QdSzYZ5ICD9QuQ7M-44" value="h_sync" style="text;html=1;align=center;verticalAlign=middle;resizable=0;points=[];autosize=1;strokeColor=none;fillColor=none;" parent="1" vertex="1">
          <mxGeometry x="705" y="467" width="60" height="30" as="geometry" />
        </mxCell>
        <mxCell id="a_h_QdSzYZ5ICD9QuQ7M-46" value="h_backporch" style="text;html=1;align=center;verticalAlign=middle;resizable=0;points=[];autosize=1;strokeColor=none;fillColor=none;" parent="1" vertex="1">
          <mxGeometry x="705" y="515" width="90" height="30" as="geometry" />
        </mxCell>
        <mxCell id="a_h_QdSzYZ5ICD9QuQ7M-47" value="&lt;div&gt;&lt;br&gt;&lt;/div&gt;&lt;div&gt;h_&lt;span style=&quot;background-color: initial;&quot;&gt;active&lt;/span&gt;&lt;/div&gt;" style="text;html=1;align=center;verticalAlign=middle;resizable=0;points=[];autosize=1;strokeColor=none;fillColor=none;" parent="1" vertex="1">
          <mxGeometry x="710" y="543" width="70" height="40" as="geometry" />
        </mxCell>
        <mxCell id="a_h_QdSzYZ5ICD9QuQ7M-49" value="h_frontporch" style="text;html=1;align=center;verticalAlign=middle;resizable=0;points=[];autosize=1;strokeColor=none;fillColor=none;" parent="1" vertex="1">
          <mxGeometry x="705" y="593" width="90" height="30" as="geometry" />
        </mxCell>
        <mxCell id="a_h_QdSzYZ5ICD9QuQ7M-21" value="" style="triangle;whiteSpace=wrap;html=1;" parent="1" vertex="1">
          <mxGeometry x="844" y="630" width="20" height="31" as="geometry" />
        </mxCell>
        <mxCell id="a_h_QdSzYZ5ICD9QuQ7M-22" value="" style="ellipse;whiteSpace=wrap;html=1;" parent="1" vertex="1">
          <mxGeometry x="849" y="661" width="20" height="20" as="geometry" />
        </mxCell>
        <mxCell id="a_h_QdSzYZ5ICD9QuQ7M-52" value="HSYNC" style="text;html=1;align=center;verticalAlign=middle;resizable=0;points=[];autosize=1;strokeColor=none;fillColor=none;" parent="1" vertex="1">
          <mxGeometry x="964" y="740" width="70" height="30" as="geometry" />
        </mxCell>
        <mxCell id="a_h_QdSzYZ5ICD9QuQ7M-55" value="Enable Data Send" style="whiteSpace=wrap;html=1;" parent="1" vertex="1">
          <mxGeometry x="1276" y="860" width="140" height="124" as="geometry" />
        </mxCell>
        <mxCell id="a_h_QdSzYZ5ICD9QuQ7M-56" value="" style="edgeStyle=none;orthogonalLoop=1;jettySize=auto;html=1;rounded=0;strokeWidth=2;" parent="1" edge="1">
          <mxGeometry width="100" relative="1" as="geometry">
            <mxPoint x="1416" y="921.57" as="sourcePoint" />
            <mxPoint x="1516" y="921.57" as="targetPoint" />
            <Array as="points" />
          </mxGeometry>
        </mxCell>
        <mxCell id="a_h_QdSzYZ5ICD9QuQ7M-57" value="pixel_data" style="text;html=1;align=center;verticalAlign=middle;resizable=0;points=[];autosize=1;strokeColor=none;fillColor=none;" parent="1" vertex="1">
          <mxGeometry x="1425" y="892" width="73" height="26" as="geometry" />
        </mxCell>
        <mxCell id="a_h_QdSzYZ5ICD9QuQ7M-58" value="" style="edgeStyle=none;orthogonalLoop=1;jettySize=auto;html=1;rounded=0;startArrow=oval;startFill=1;entryX=0;entryY=0.5;entryDx=0;entryDy=0;" parent="1" edge="1">
          <mxGeometry width="100" relative="1" as="geometry">
            <mxPoint x="815" y="490" as="sourcePoint" />
            <mxPoint x="849" y="770.9999999999998" as="targetPoint" />
            <Array as="points">
              <mxPoint x="815" y="771" />
            </Array>
          </mxGeometry>
        </mxCell>
        <mxCell id="a_h_QdSzYZ5ICD9QuQ7M-59" value="Send HSYNC&amp;nbsp;&lt;div&gt;Signal&lt;/div&gt;" style="whiteSpace=wrap;html=1;" parent="1" vertex="1">
          <mxGeometry x="849" y="720" width="120" height="100" as="geometry" />
        </mxCell>
        <mxCell id="a_h_QdSzYZ5ICD9QuQ7M-73" value="&lt;font size=&quot;3&quot;&gt;VSYNC&lt;/font&gt;&lt;div&gt;&lt;font size=&quot;3&quot;&gt;FSM&lt;/font&gt;&lt;/div&gt;" style="whiteSpace=wrap;html=1;align=center;" parent="1" vertex="1">
          <mxGeometry x="1384" y="474" width="150" height="187" as="geometry" />
        </mxCell>
        <mxCell id="a_h_QdSzYZ5ICD9QuQ7M-74" value="" style="triangle;whiteSpace=wrap;html=1;" parent="1" vertex="1">
          <mxGeometry x="1384" y="628" width="24" height="33" as="geometry" />
        </mxCell>
        <mxCell id="a_h_QdSzYZ5ICD9QuQ7M-75" value="" style="ellipse;whiteSpace=wrap;html=1;" parent="1" vertex="1">
          <mxGeometry x="1386" y="661" width="20" height="20" as="geometry" />
        </mxCell>
        <mxCell id="a_h_QdSzYZ5ICD9QuQ7M-77" style="edgeStyle=orthogonalEdgeStyle;rounded=0;orthogonalLoop=1;jettySize=auto;html=1;exitX=1;exitY=0.5;exitDx=0;exitDy=0;startArrow=classic;startFill=1;endArrow=none;endFill=0;" parent="1" edge="1">
          <mxGeometry relative="1" as="geometry">
            <mxPoint x="1384" y="571" as="targetPoint" />
            <mxPoint x="1244" y="570.5" as="sourcePoint" />
          </mxGeometry>
        </mxCell>
        <mxCell id="a_h_QdSzYZ5ICD9QuQ7M-79" value="v_sync" style="text;html=1;align=center;verticalAlign=middle;resizable=0;points=[];autosize=1;strokeColor=none;fillColor=none;" parent="1" vertex="1">
          <mxGeometry x="1239" y="454.5" width="60" height="30" as="geometry" />
        </mxCell>
        <mxCell id="a_h_QdSzYZ5ICD9QuQ7M-80" value="v_backporch" style="text;html=1;align=center;verticalAlign=middle;resizable=0;points=[];autosize=1;strokeColor=none;fillColor=none;" parent="1" vertex="1">
          <mxGeometry x="1239" y="502.5" width="90" height="30" as="geometry" />
        </mxCell>
        <mxCell id="a_h_QdSzYZ5ICD9QuQ7M-81" value="&lt;div&gt;&lt;br&gt;&lt;/div&gt;&lt;div&gt;v_&lt;span style=&quot;background-color: initial;&quot;&gt;active&lt;/span&gt;&lt;/div&gt;" style="text;html=1;align=center;verticalAlign=middle;resizable=0;points=[];autosize=1;strokeColor=none;fillColor=none;" parent="1" vertex="1">
          <mxGeometry x="1244" y="530.5" width="70" height="40" as="geometry" />
        </mxCell>
        <mxCell id="a_h_QdSzYZ5ICD9QuQ7M-82" value="v_frontporch" style="text;html=1;align=center;verticalAlign=middle;resizable=0;points=[];autosize=1;strokeColor=none;fillColor=none;" parent="1" vertex="1">
          <mxGeometry x="1239" y="580.5" width="90" height="30" as="geometry" />
        </mxCell>
        <mxCell id="a_h_QdSzYZ5ICD9QuQ7M-83" value="VSYNC&lt;div&gt;&lt;span style=&quot;background-color: initial;&quot;&gt;Counter&lt;/span&gt;&lt;br&gt;&lt;/div&gt;" style="whiteSpace=wrap;html=1;" parent="1" vertex="1">
          <mxGeometry x="1094" y="468" width="150" height="194" as="geometry" />
        </mxCell>
        <mxCell id="a_h_QdSzYZ5ICD9QuQ7M-84" value="" style="triangle;whiteSpace=wrap;html=1;" parent="1" vertex="1">
          <mxGeometry x="1094" y="631" width="20" height="31" as="geometry" />
        </mxCell>
        <mxCell id="a_h_QdSzYZ5ICD9QuQ7M-85" value="" style="ellipse;whiteSpace=wrap;html=1;" parent="1" vertex="1">
          <mxGeometry x="1099" y="662" width="20" height="20" as="geometry" />
        </mxCell>
        <mxCell id="a_h_QdSzYZ5ICD9QuQ7M-87" value="v_count_toggle" style="text;html=1;align=center;verticalAlign=middle;resizable=0;points=[];autosize=1;strokeColor=none;fillColor=none;" parent="1" vertex="1">
          <mxGeometry x="990" y="540" width="99" height="26" as="geometry" />
        </mxCell>
        <mxCell id="a_h_QdSzYZ5ICD9QuQ7M-88" value="" style="edgeStyle=none;orthogonalLoop=1;jettySize=auto;html=1;rounded=0;startArrow=oval;startFill=1;entryX=0;entryY=0.5;entryDx=0;entryDy=0;" parent="1" edge="1">
          <mxGeometry width="100" relative="1" as="geometry">
            <mxPoint x="1357" y="484.5" as="sourcePoint" />
            <mxPoint x="1384" y="776" as="targetPoint" />
            <Array as="points">
              <mxPoint x="1357" y="776" />
            </Array>
          </mxGeometry>
        </mxCell>
        <mxCell id="a_h_QdSzYZ5ICD9QuQ7M-89" style="edgeStyle=none;rounded=0;orthogonalLoop=1;jettySize=auto;html=1;exitX=1;exitY=0.5;exitDx=0;exitDy=0;strokeWidth=2;" parent="1" edge="1">
          <mxGeometry relative="1" as="geometry">
            <mxPoint x="1569" y="749.1644827586207" as="targetPoint" />
            <mxPoint x="1489" y="749.13" as="sourcePoint" />
          </mxGeometry>
        </mxCell>
        <mxCell id="a_h_QdSzYZ5ICD9QuQ7M-90" value="VSYNC" style="text;html=1;align=center;verticalAlign=middle;resizable=0;points=[];autosize=1;strokeColor=none;fillColor=none;" parent="1" vertex="1">
          <mxGeometry x="1499" y="720" width="60" height="30" as="geometry" />
        </mxCell>
        <mxCell id="a_h_QdSzYZ5ICD9QuQ7M-91" value="Send VSYNC&amp;nbsp;&lt;div&gt;Signal&lt;/div&gt;" style="whiteSpace=wrap;html=1;" parent="1" vertex="1">
          <mxGeometry x="1386" y="720" width="120" height="100" as="geometry" />
        </mxCell>
        <mxCell id="a_h_QdSzYZ5ICD9QuQ7M-98" value="" style="edgeStyle=none;orthogonalLoop=1;jettySize=auto;html=1;rounded=0;startArrow=oval;startFill=1;entryX=0;entryY=0.25;entryDx=0;entryDy=0;" parent="1" target="a_h_QdSzYZ5ICD9QuQ7M-55" edge="1">
          <mxGeometry width="100" relative="1" as="geometry">
            <mxPoint x="790" y="580" as="sourcePoint" />
            <mxPoint x="829" y="860" as="targetPoint" />
            <Array as="points">
              <mxPoint x="790" y="891" />
            </Array>
          </mxGeometry>
        </mxCell>
        <mxCell id="a_h_QdSzYZ5ICD9QuQ7M-99" style="edgeStyle=orthogonalEdgeStyle;rounded=0;orthogonalLoop=1;jettySize=auto;html=1;exitX=0.5;exitY=0;exitDx=0;exitDy=0;entryX=0.75;entryY=0;entryDx=0;entryDy=0;startArrow=classic;startFill=1;endArrow=none;endFill=0;" parent="1" source="a_h_QdSzYZ5ICD9QuQ7M-73" edge="1">
          <mxGeometry relative="1" as="geometry">
            <mxPoint x="1393" y="468" as="sourcePoint" />
            <mxPoint x="1184" y="467" as="targetPoint" />
            <Array as="points">
              <mxPoint x="1459" y="411" />
              <mxPoint x="1184" y="411" />
            </Array>
          </mxGeometry>
        </mxCell>
        <mxCell id="a_h_QdSzYZ5ICD9QuQ7M-100" value="change_state_v" style="text;html=1;align=center;verticalAlign=middle;resizable=0;points=[];autosize=1;strokeColor=none;fillColor=none;" parent="1" vertex="1">
          <mxGeometry x="1166" y="381" width="110" height="30" as="geometry" />
        </mxCell>
        <mxCell id="a_h_QdSzYZ5ICD9QuQ7M-103" style="edgeStyle=orthogonalEdgeStyle;rounded=0;orthogonalLoop=1;jettySize=auto;html=1;exitX=1;exitY=0.5;exitDx=0;exitDy=0;startArrow=classic;startFill=1;endArrow=none;endFill=0;" parent="1" edge="1">
          <mxGeometry relative="1" as="geometry">
            <mxPoint x="1384" y="608" as="targetPoint" />
            <mxPoint x="1244" y="607.5" as="sourcePoint" />
          </mxGeometry>
        </mxCell>
        <mxCell id="a_h_QdSzYZ5ICD9QuQ7M-104" style="edgeStyle=orthogonalEdgeStyle;rounded=0;orthogonalLoop=1;jettySize=auto;html=1;exitX=1;exitY=0.5;exitDx=0;exitDy=0;startArrow=classic;startFill=1;endArrow=none;endFill=0;" parent="1" edge="1">
          <mxGeometry relative="1" as="geometry">
            <mxPoint x="1384" y="529.99" as="targetPoint" />
            <mxPoint x="1244" y="529.49" as="sourcePoint" />
          </mxGeometry>
        </mxCell>
        <mxCell id="a_h_QdSzYZ5ICD9QuQ7M-105" style="edgeStyle=orthogonalEdgeStyle;rounded=0;orthogonalLoop=1;jettySize=auto;html=1;exitX=1;exitY=0.5;exitDx=0;exitDy=0;startArrow=classic;startFill=1;endArrow=none;endFill=0;" parent="1" edge="1">
          <mxGeometry relative="1" as="geometry">
            <mxPoint x="1384" y="485" as="targetPoint" />
            <mxPoint x="1244" y="484.5" as="sourcePoint" />
          </mxGeometry>
        </mxCell>
        <mxCell id="a_h_QdSzYZ5ICD9QuQ7M-106" value="" style="edgeStyle=none;orthogonalLoop=1;jettySize=auto;html=1;rounded=0;startArrow=oval;startFill=1;" parent="1" edge="1">
          <mxGeometry width="100" relative="1" as="geometry">
            <mxPoint x="1330" y="570" as="sourcePoint" />
            <mxPoint x="1330" y="856" as="targetPoint" />
            <Array as="points" />
          </mxGeometry>
        </mxCell>
        <mxCell id="a_h_QdSzYZ5ICD9QuQ7M-107" value="Offset Adder" style="whiteSpace=wrap;html=1;" parent="1" vertex="1">
          <mxGeometry x="839.5" y="160" width="210" height="160" as="geometry" />
        </mxCell>
        <mxCell id="a_h_QdSzYZ5ICD9QuQ7M-111" value="" style="edgeStyle=none;orthogonalLoop=1;jettySize=auto;html=1;rounded=0;entryX=0.25;entryY=1;entryDx=0;entryDy=0;" parent="1" target="a_h_QdSzYZ5ICD9QuQ7M-107" edge="1">
          <mxGeometry width="100" relative="1" as="geometry">
            <mxPoint x="790" y="580" as="sourcePoint" />
            <mxPoint x="790" y="360" as="targetPoint" />
            <Array as="points">
              <mxPoint x="790" y="350" />
              <mxPoint x="892" y="350" />
            </Array>
          </mxGeometry>
        </mxCell>
        <mxCell id="a_h_QdSzYZ5ICD9QuQ7M-114" value="h_count" style="text;html=1;align=center;verticalAlign=middle;resizable=0;points=[];autosize=1;strokeColor=none;fillColor=none;" parent="1" vertex="1">
          <mxGeometry x="953" y="423" width="70" height="30" as="geometry" />
        </mxCell>
        <mxCell id="a_h_QdSzYZ5ICD9QuQ7M-115" value="" style="edgeStyle=none;orthogonalLoop=1;jettySize=auto;html=1;rounded=0;exitX=0.25;exitY=0;exitDx=0;exitDy=0;entryX=1;entryY=0.75;entryDx=0;entryDy=0;" parent="1" source="a_h_QdSzYZ5ICD9QuQ7M-83" target="a_h_QdSzYZ5ICD9QuQ7M-107" edge="1">
          <mxGeometry width="100" relative="1" as="geometry">
            <mxPoint x="1100" y="320" as="sourcePoint" />
            <mxPoint x="1200" y="320" as="targetPoint" />
            <Array as="points">
              <mxPoint x="1131" y="280" />
            </Array>
          </mxGeometry>
        </mxCell>
        <mxCell id="a_h_QdSzYZ5ICD9QuQ7M-116" value="v_count" style="text;html=1;align=center;verticalAlign=middle;resizable=0;points=[];autosize=1;strokeColor=none;fillColor=none;" parent="1" vertex="1">
          <mxGeometry x="1063" y="429" width="70" height="30" as="geometry" />
        </mxCell>
        <mxCell id="a_h_QdSzYZ5ICD9QuQ7M-117" value="" style="edgeStyle=none;orthogonalLoop=1;jettySize=auto;html=1;rounded=0;entryX=1.005;entryY=0.475;entryDx=0;entryDy=0;entryPerimeter=0;" parent="1" target="a_h_QdSzYZ5ICD9QuQ7M-107" edge="1">
          <mxGeometry width="100" relative="1" as="geometry">
            <mxPoint x="1330" y="570" as="sourcePoint" />
            <mxPoint x="1330" y="330" as="targetPoint" />
            <Array as="points">
              <mxPoint x="1330" y="236" />
            </Array>
          </mxGeometry>
        </mxCell>
        <mxCell id="a_h_QdSzYZ5ICD9QuQ7M-120" value="" style="triangle;whiteSpace=wrap;html=1;" parent="1" vertex="1">
          <mxGeometry x="840" y="287" width="24" height="33" as="geometry" />
        </mxCell>
        <mxCell id="a_h_QdSzYZ5ICD9QuQ7M-121" value="" style="ellipse;whiteSpace=wrap;html=1;" parent="1" vertex="1">
          <mxGeometry x="845" y="320" width="20" height="20" as="geometry" />
        </mxCell>
        <mxCell id="a_h_QdSzYZ5ICD9QuQ7M-123" value="" style="endArrow=none;html=1;rounded=0;" parent="1" edge="1">
          <mxGeometry width="50" height="50" relative="1" as="geometry">
            <mxPoint x="944" y="436" as="sourcePoint" />
            <mxPoint x="965" y="416" as="targetPoint" />
          </mxGeometry>
        </mxCell>
        <mxCell id="a_h_QdSzYZ5ICD9QuQ7M-124" value="10" style="text;html=1;align=center;verticalAlign=middle;resizable=0;points=[];autosize=1;strokeColor=none;fillColor=none;" parent="1" vertex="1">
          <mxGeometry x="925" y="410" width="31" height="26" as="geometry" />
        </mxCell>
        <mxCell id="a_h_QdSzYZ5ICD9QuQ7M-125" value="" style="endArrow=none;html=1;rounded=0;" parent="1" edge="1">
          <mxGeometry width="50" height="50" relative="1" as="geometry">
            <mxPoint x="1123" y="429" as="sourcePoint" />
            <mxPoint x="1144" y="409" as="targetPoint" />
          </mxGeometry>
        </mxCell>
        <mxCell id="a_h_QdSzYZ5ICD9QuQ7M-126" value="9" style="text;html=1;align=center;verticalAlign=middle;resizable=0;points=[];autosize=1;strokeColor=none;fillColor=none;" parent="1" vertex="1">
          <mxGeometry x="1107" y="403" width="25" height="26" as="geometry" />
        </mxCell>
        <mxCell id="j9uklfwy02_yAITF8O0o-1" value="&lt;b&gt;VGA Data&amp;nbsp;&lt;/b&gt;&lt;div&gt;&lt;b&gt;Controller&lt;/b&gt;&lt;/div&gt;" style="whiteSpace=wrap;html=1;" vertex="1" parent="1">
          <mxGeometry x="210" y="425" width="114" height="147" as="geometry" />
        </mxCell>
        <mxCell id="j9uklfwy02_yAITF8O0o-6" value="FSM" style="whiteSpace=wrap;html=1;" vertex="1" parent="1">
          <mxGeometry x="687" y="1258" width="143" height="232" as="geometry" />
        </mxCell>
        <mxCell id="j9uklfwy02_yAITF8O0o-7" value="" style="triangle;whiteSpace=wrap;html=1;" vertex="1" parent="1">
          <mxGeometry x="687" y="1450" width="27" height="40" as="geometry" />
        </mxCell>
        <mxCell id="j9uklfwy02_yAITF8O0o-8" value="" style="ellipse;whiteSpace=wrap;html=1;" vertex="1" parent="1">
          <mxGeometry x="693" y="1491" width="22" height="22" as="geometry" />
        </mxCell>
        <mxCell id="j9uklfwy02_yAITF8O0o-9" value="" style="edgeStyle=none;orthogonalLoop=1;jettySize=auto;html=1;rounded=0;" edge="1" parent="1">
          <mxGeometry width="100" relative="1" as="geometry">
            <mxPoint x="586" y="1295" as="sourcePoint" />
            <mxPoint x="686" y="1295" as="targetPoint" />
            <Array as="points" />
          </mxGeometry>
        </mxCell>
        <mxCell id="j9uklfwy02_yAITF8O0o-10" value="&lt;font style=&quot;font-size: 24px;&quot;&gt;VGA Data Controller&lt;/font&gt;" style="text;html=1;align=center;verticalAlign=middle;resizable=0;points=[];autosize=1;strokeColor=none;fillColor=none;" vertex="1" parent="1">
          <mxGeometry x="598" y="1131" width="235" height="41" as="geometry" />
        </mxCell>
        <mxCell id="j9uklfwy02_yAITF8O0o-11" value="" style="endArrow=none;html=1;rounded=0;" edge="1" parent="1">
          <mxGeometry width="50" height="50" relative="1" as="geometry">
            <mxPoint x="620" y="1311" as="sourcePoint" />
            <mxPoint x="649" y="1282" as="targetPoint" />
          </mxGeometry>
        </mxCell>
        <mxCell id="j9uklfwy02_yAITF8O0o-12" value="" style="edgeStyle=none;orthogonalLoop=1;jettySize=auto;html=1;rounded=0;" edge="1" parent="1">
          <mxGeometry width="100" relative="1" as="geometry">
            <mxPoint x="831" y="1296" as="sourcePoint" />
            <mxPoint x="931" y="1296" as="targetPoint" />
            <Array as="points" />
          </mxGeometry>
        </mxCell>
        <mxCell id="j9uklfwy02_yAITF8O0o-13" value="" style="endArrow=none;html=1;rounded=0;" edge="1" parent="1">
          <mxGeometry width="50" height="50" relative="1" as="geometry">
            <mxPoint x="865" y="1312" as="sourcePoint" />
            <mxPoint x="894" y="1283" as="targetPoint" />
          </mxGeometry>
        </mxCell>
        <mxCell id="j9uklfwy02_yAITF8O0o-14" value="32" style="text;html=1;align=center;verticalAlign=middle;resizable=0;points=[];autosize=1;strokeColor=none;fillColor=none;" vertex="1" parent="1">
          <mxGeometry x="626" y="1300" width="31" height="26" as="geometry" />
        </mxCell>
        <mxCell id="j9uklfwy02_yAITF8O0o-15" value="32" style="text;html=1;align=center;verticalAlign=middle;resizable=0;points=[];autosize=1;strokeColor=none;fillColor=none;" vertex="1" parent="1">
          <mxGeometry x="872" y="1299" width="31" height="26" as="geometry" />
        </mxCell>
        <mxCell id="j9uklfwy02_yAITF8O0o-16" value="VGA_request_address" style="text;html=1;align=center;verticalAlign=middle;resizable=0;points=[];autosize=1;strokeColor=none;fillColor=none;" vertex="1" parent="1">
          <mxGeometry x="465" y="1257" width="139" height="26" as="geometry" />
        </mxCell>
        <mxCell id="j9uklfwy02_yAITF8O0o-17" value="SRAM_address" style="text;html=1;align=center;verticalAlign=middle;resizable=0;points=[];autosize=1;strokeColor=none;fillColor=none;" vertex="1" parent="1">
          <mxGeometry x="942" y="1277" width="102" height="26" as="geometry" />
        </mxCell>
        <mxCell id="j9uklfwy02_yAITF8O0o-20" value="" style="edgeStyle=none;orthogonalLoop=1;jettySize=auto;html=1;rounded=0;entryX=0.75;entryY=0;entryDx=0;entryDy=0;" edge="1" parent="1" target="j9uklfwy02_yAITF8O0o-1">
          <mxGeometry width="100" relative="1" as="geometry">
            <mxPoint x="957" y="378" as="sourcePoint" />
            <mxPoint x="506" y="378" as="targetPoint" />
            <Array as="points">
              <mxPoint x="418" y="378" />
              <mxPoint x="296" y="378" />
            </Array>
          </mxGeometry>
        </mxCell>
        <mxCell id="j9uklfwy02_yAITF8O0o-22" value="" style="shape=waypoint;sketch=0;size=6;pointerEvents=1;points=[];fillColor=none;resizable=0;rotatable=0;perimeter=centerPerimeter;snapToPoint=1;" vertex="1" parent="1">
          <mxGeometry x="946" y="368" width="20" height="20" as="geometry" />
        </mxCell>
        <mxCell id="j9uklfwy02_yAITF8O0o-24" value="" style="edgeStyle=none;orthogonalLoop=1;jettySize=auto;html=1;rounded=0;" edge="1" parent="1">
          <mxGeometry width="100" relative="1" as="geometry">
            <mxPoint x="587" y="1355" as="sourcePoint" />
            <mxPoint x="687" y="1355" as="targetPoint" />
            <Array as="points" />
          </mxGeometry>
        </mxCell>
        <mxCell id="j9uklfwy02_yAITF8O0o-25" value="" style="endArrow=none;html=1;rounded=0;" edge="1" parent="1">
          <mxGeometry width="50" height="50" relative="1" as="geometry">
            <mxPoint x="621" y="1371" as="sourcePoint" />
            <mxPoint x="650" y="1342" as="targetPoint" />
          </mxGeometry>
        </mxCell>
        <mxCell id="j9uklfwy02_yAITF8O0o-26" value="10" style="text;html=1;align=center;verticalAlign=middle;resizable=0;points=[];autosize=1;strokeColor=none;fillColor=none;" vertex="1" parent="1">
          <mxGeometry x="627" y="1360" width="31" height="26" as="geometry" />
        </mxCell>
        <mxCell id="j9uklfwy02_yAITF8O0o-27" value="h_count" style="text;html=1;align=center;verticalAlign=middle;resizable=0;points=[];autosize=1;strokeColor=none;fillColor=none;" vertex="1" parent="1">
          <mxGeometry x="521" y="1342" width="61" height="26" as="geometry" />
        </mxCell>
        <mxCell id="j9uklfwy02_yAITF8O0o-28" value="" style="edgeStyle=none;orthogonalLoop=1;jettySize=auto;html=1;rounded=0;endArrow=none;endFill=0;startArrow=classic;startFill=1;" edge="1" parent="1">
          <mxGeometry width="100" relative="1" as="geometry">
            <mxPoint x="588" y="1423" as="sourcePoint" />
            <mxPoint x="688" y="1423" as="targetPoint" />
            <Array as="points" />
          </mxGeometry>
        </mxCell>
        <mxCell id="j9uklfwy02_yAITF8O0o-29" value="" style="endArrow=none;html=1;rounded=0;" edge="1" parent="1">
          <mxGeometry width="50" height="50" relative="1" as="geometry">
            <mxPoint x="622" y="1439" as="sourcePoint" />
            <mxPoint x="651" y="1410" as="targetPoint" />
          </mxGeometry>
        </mxCell>
        <mxCell id="j9uklfwy02_yAITF8O0o-30" value="32" style="text;html=1;align=center;verticalAlign=middle;resizable=0;points=[];autosize=1;strokeColor=none;fillColor=none;" vertex="1" parent="1">
          <mxGeometry x="628" y="1428" width="31" height="26" as="geometry" />
        </mxCell>
        <mxCell id="j9uklfwy02_yAITF8O0o-31" value="data_to_VGA" style="text;html=1;align=center;verticalAlign=middle;resizable=0;points=[];autosize=1;strokeColor=none;fillColor=none;" vertex="1" parent="1">
          <mxGeometry x="491" y="1413" width="90" height="26" as="geometry" />
        </mxCell>
        <mxCell id="j9uklfwy02_yAITF8O0o-32" value="Send Bit" style="whiteSpace=wrap;html=1;" vertex="1" parent="1">
          <mxGeometry x="389" y="561" width="97" height="97" as="geometry" />
        </mxCell>
        <mxCell id="j9uklfwy02_yAITF8O0o-33" value="" style="edgeStyle=none;orthogonalLoop=1;jettySize=auto;html=1;rounded=0;entryX=0.5;entryY=0;entryDx=0;entryDy=0;startArrow=oval;startFill=1;" edge="1" parent="1" target="j9uklfwy02_yAITF8O0o-32">
          <mxGeometry width="100" relative="1" as="geometry">
            <mxPoint x="438" y="378" as="sourcePoint" />
            <mxPoint x="472" y="409" as="targetPoint" />
            <Array as="points" />
          </mxGeometry>
        </mxCell>
        <mxCell id="j9uklfwy02_yAITF8O0o-34" value="" style="edgeStyle=none;orthogonalLoop=1;jettySize=auto;html=1;rounded=0;exitX=1;exitY=0.5;exitDx=0;exitDy=0;entryX=0;entryY=0.5;entryDx=0;entryDy=0;" edge="1" parent="1" source="j9uklfwy02_yAITF8O0o-1" target="j9uklfwy02_yAITF8O0o-32">
          <mxGeometry width="100" relative="1" as="geometry">
            <mxPoint x="289" y="502" as="sourcePoint" />
            <mxPoint x="388" y="498" as="targetPoint" />
            <Array as="points">
              <mxPoint x="366" y="499" />
              <mxPoint x="366" y="610" />
            </Array>
          </mxGeometry>
        </mxCell>
        <mxCell id="j9uklfwy02_yAITF8O0o-35" value="32" style="text;html=1;align=center;verticalAlign=middle;resizable=0;points=[];autosize=1;strokeColor=none;fillColor=none;" vertex="1" parent="1">
          <mxGeometry x="334" y="498" width="31" height="26" as="geometry" />
        </mxCell>
        <mxCell id="j9uklfwy02_yAITF8O0o-36" value="" style="endArrow=none;html=1;rounded=0;" edge="1" parent="1">
          <mxGeometry width="50" height="50" relative="1" as="geometry">
            <mxPoint x="338" y="508" as="sourcePoint" />
            <mxPoint x="353" y="492" as="targetPoint" />
          </mxGeometry>
        </mxCell>
        <mxCell id="j9uklfwy02_yAITF8O0o-37" value="data_to_VGA" style="text;html=1;align=center;verticalAlign=middle;resizable=0;points=[];autosize=1;strokeColor=none;fillColor=none;" vertex="1" parent="1">
          <mxGeometry x="326" y="466" width="90" height="26" as="geometry" />
        </mxCell>
        <mxCell id="j9uklfwy02_yAITF8O0o-38" value="" style="edgeStyle=none;orthogonalLoop=1;jettySize=auto;html=1;rounded=0;endArrow=none;endFill=0;startArrow=classic;startFill=1;" edge="1" parent="1">
          <mxGeometry width="100" relative="1" as="geometry">
            <mxPoint x="829" y="1407" as="sourcePoint" />
            <mxPoint x="929" y="1407" as="targetPoint" />
            <Array as="points" />
          </mxGeometry>
        </mxCell>
        <mxCell id="j9uklfwy02_yAITF8O0o-39" value="" style="endArrow=none;html=1;rounded=0;" edge="1" parent="1">
          <mxGeometry width="50" height="50" relative="1" as="geometry">
            <mxPoint x="863" y="1423" as="sourcePoint" />
            <mxPoint x="892" y="1394" as="targetPoint" />
          </mxGeometry>
        </mxCell>
        <mxCell id="j9uklfwy02_yAITF8O0o-40" value="32" style="text;html=1;align=center;verticalAlign=middle;resizable=0;points=[];autosize=1;strokeColor=none;fillColor=none;" vertex="1" parent="1">
          <mxGeometry x="869" y="1412" width="31" height="26" as="geometry" />
        </mxCell>
        <mxCell id="j9uklfwy02_yAITF8O0o-41" value="data_from_SRAM" style="text;html=1;align=center;verticalAlign=middle;resizable=0;points=[];autosize=1;strokeColor=none;fillColor=none;" vertex="1" parent="1">
          <mxGeometry x="933" y="1394" width="113" height="26" as="geometry" />
        </mxCell>
        <mxCell id="j9uklfwy02_yAITF8O0o-42" value="read" style="text;html=1;align=center;verticalAlign=middle;resizable=0;points=[];autosize=1;strokeColor=none;fillColor=none;" vertex="1" parent="1">
          <mxGeometry x="951" y="1343" width="42" height="26" as="geometry" />
        </mxCell>
        <mxCell id="j9uklfwy02_yAITF8O0o-43" value="" style="edgeStyle=none;orthogonalLoop=1;jettySize=auto;html=1;rounded=0;" edge="1" parent="1">
          <mxGeometry width="100" relative="1" as="geometry">
            <mxPoint x="832" y="1360" as="sourcePoint" />
            <mxPoint x="932" y="1360" as="targetPoint" />
            <Array as="points" />
          </mxGeometry>
        </mxCell>
      </root>
    </mxGraphModel>
  </diagram>
</mxfile>
